<svg xmlns="http://www.w3.org/2000/svg" viewBox="0 0 70 47">
    <g fill="none" fill-rule="nonzero">
        <path fill="#a12134" d="M3.6 0h62.8c2 0 3.6 1.7 3.6 3.8v39.4c0 2.1-1.6 3.8-3.6 3.8H3.6c-2 0-3.6-1.7-3.6-3.8V3.8C0 1.7 1.6 0 3.6 0z"/>
        <path fill="#9D9400" d="M6 10h10v9H6z"/>
        <path fill="#FFF" d="M8.4 27v-.4h-.5v-1h-.4v1h-1l.9-2.4L7 24l-1 2.7v.3h1.5v1h.4v-1h.5zm1.7-3c-.3 0-.7.1-1 .5l.2.2c.3-.2.5-.3.8-.3.4 0 .7.2.7.6 0 .5-.4.7-.7.7h-.2v.4h.2c.4 0 .8.2.8.7 0 .5-.3.8-.8.8a1 1 0 01-.8-.4l-.3.3c.3.3.7.5 1 .5.8 0 1.3-.5 1.3-1.2 0-.6-.4-.9-.8-1 .4 0 .7-.4.7-.8 0-.6-.4-1-1-1zm3.1 0c-.5 0-.8.2-1 .6l.2.2c.2-.3.4-.4.8-.4s.6.3.6.7c0 .6-.3 1-1.6 2.5v.3h2.1v-.4h-1.6c1.2-1.1 1.6-1.7 1.6-2.4 0-.6-.4-1.1-1-1.1zm4.4 3.6h-.8V24h-.3l-1 .7v.3l1-.5v3h-1v.3h2v-.3zm6.2-.6v-.4h-.4v-1H23v1h-1l.9-2.4-.4-.2-1 2.7v.3h1.4v1h.5v-1h.4zm1.8-3c-.4 0-.7.1-1 .5l.2.2c.2-.2.5-.3.8-.3.3 0 .6.2.6.6 0 .5-.3.7-.6.7h-.2l-.1.4h.3c.4 0 .7.2.7.7 0 .5-.3.8-.8.8a1 1 0 01-.7-.4l-.3.3c.2.3.7.5 1 .5.8 0 1.3-.5 1.3-1.2 0-.6-.4-.9-.8-1 .4 0 .7-.4.7-.8 0-.6-.4-1-1.1-1zm3 0c-.4 0-.7.2-1 .6l.3.2c.2-.3.4-.4.8-.4s.6.3.6.7c0 .6-.3 1-1.6 2.5v.3h2l.1-.4h-1.6c1.1-1.1 1.5-1.7 1.5-2.4 0-.6-.3-1.1-1-1.1zm4.5 3.6h-.8V24H32l-1 .7.2.3.8-.5v3H31v.3h2v-.3zm6.2-.6v-.4h-.5v-1h-.3v1h-1.1l1-2.4-.4-.2-1 2.7v.3h1.4v1h.4v-1h.5zm1.8-3c-.4 0-.7.1-1 .5l.2.2c.2-.2.4-.3.7-.3.4 0 .7.2.7.6 0 .5-.3.7-.7.7h-.2v.4h.3c.4 0 .7.2.7.7 0 .5-.3.8-.8.8a1 1 0 01-.8-.4l-.3.3c.3.3.7.5 1.1.5.8 0 1.3-.5 1.3-1.2 0-.6-.4-.9-.8-1 .3 0 .6-.4.6-.8 0-.6-.4-1-1-1zm3 0c-.4 0-.7.2-1 .6l.3.2c.2-.3.4-.4.7-.4.4 0 .7.3.7.7 0 .6-.3 1-1.7 2.5v.3h2.2v-.4h-1.7c1.2-1.1 1.6-1.7 1.6-2.4 0-.6-.4-1.1-1-1.1zm4.4 3.6h-.7V24h-.4l-1 .7.1.3.9-.5v3h-1v.3h2.1v-.3zm6.3-.6v-.4h-.5v-1H54v1h-1l1-2.4-.4-.2-1 2.7v.3h1.4v1h.4v-1h.5zm1.7-3c-.3 0-.7.1-1 .5l.3.2c.2-.2.4-.3.7-.3.4 0 .7.2.7.6 0 .5-.3.7-.7.7h-.2v.4h.2c.5 0 .8.2.8.7 0 .5-.3.8-.8.8a1 1 0 01-.8-.4l-.3.3c.3.3.7.5 1.1.5.7 0 1.2-.5 1.2-1.2 0-.6-.4-.9-.8-1 .4 0 .7-.4.7-.8 0-.6-.4-1-1-1zm3.1 0c-.5 0-.8.2-1 .6l.2.2c.3-.3.5-.4.8-.4.4 0 .6.3.6.7 0 .6-.2 1-1.6 2.5v.3h2.1v-.4h-1.6c1.2-1.1 1.6-1.7 1.6-2.4 0-.6-.4-1.1-1-1.1zM7.1 34c.7 0 1.1.4 1.1 1 0 .4-.3.8-.7.9.4 0 .8.3.8 1 0 .6-.5 1.1-1.2 1.1-.4 0-.8-.2-1.1-.5l.3-.3c.2.3.5.4.8.4.5 0 .8-.3.8-.8s-.3-.7-.8-.7h-.3v-.4h.3c.3 0 .7-.2.7-.7 0-.4-.3-.6-.7-.6-.3 0-.5.1-.8.3l-.2-.2c.3-.4.7-.5 1-.5zm6.4 0c.7 0 1.1.4 1.1 1 0 .4-.3.8-.7.9.4 0 .8.3.8 1 0 .6-.5 1.1-1.2 1.1-.4 0-.8-.2-1-.5l.2-.3c.2.3.5.4.8.4.5 0 .8-.3.8-.8s-.3-.7-.8-.7h-.3l.1-.4h.2c.4 0 .7-.2.7-.7 0-.4-.3-.6-.7-.6-.3 0-.5.1-.7.3l-.3-.2c.3-.4.7-.5 1-.5zm7 0c.7 0 1.1.4 1.1 1 0 .4-.3.8-.7.9.4 0 .8.3.8 1 0 .6-.5 1.1-1.2 1.1-.4 0-.8-.2-1-.5l.2-.3c.2.3.5.4.8.4.5 0 .8-.3.8-.8s-.3-.7-.8-.7h-.3l.1-.4h.2c.4 0 .7-.2.7-.7 0-.4-.3-.6-.7-.6-.3 0-.5.1-.7.3l-.3-.2c.3-.4.7-.5 1-.5zm-10.4 0c.7 0 1 .5 1 1 0 .8-.4 1.4-1.5 2.5h1.6v.4H9v-.3c1.3-1.4 1.6-1.9 1.6-2.5 0-.4-.2-.7-.6-.7-.4 0-.6.1-.8.4l-.3-.2c.3-.4.6-.6 1-.6zm6.5 0c.7 0 1 .5 1 1 0 .8-.3 1.4-1.5 2.5h1.7v.4h-2.2v-.3c1.4-1.4 1.6-1.9 1.6-2.5 0-.4-.2-.7-.6-.7-.3 0-.5.1-.8.4l-.3-.2c.3-.4.6-.6 1.1-.6zm7 0c.7 0 1 .5 1 1 0 .8-.3 1.4-1.5 2.5h1.7v.4h-2.2v-.3c1.4-1.4 1.6-1.9 1.6-2.5 0-.4-.2-.7-.6-.7-.3 0-.5.1-.8.4l-.3-.2c.3-.4.6-.6 1.1-.6zm39.7-10v3.6h.7v.3h-2v-.3h.8v-3l-.8.5-.2-.3 1-.7h.5zM45.5 34c-.3 0-.7.1-1 .5l.3.2c.2-.2.4-.3.7-.3.4 0 .7.2.7.6 0 .5-.3.7-.7.7h-.2v.4h.2c.5 0 .8.2.8.7 0 .5-.3.8-.8.8a1 1 0 01-.8-.4l-.3.3c.3.3.7.5 1.1.5.7 0 1.2-.5 1.2-1.2 0-.6-.4-.9-.8-1 .4 0 .7-.4.7-.8 0-.6-.4-1-1-1zm3.1 0c-.5 0-.8.2-1 .6l.2.2c.3-.3.5-.4.8-.4.4 0 .6.3.6.7 0 .6-.2 1-1.6 2.5v.3h2.1v-.4h-1.6c1.2-1.1 1.6-1.7 1.6-2.4 0-.6-.4-1.1-1-1.1zm4.4 3.6h-.7V34h-.4l-1 .7.1.3.8-.5v3H51v.3h2v-.3zM36.5 34c-.3 0-.7.1-1 .5l.3.2c.2-.2.4-.3.7-.3.4 0 .7.2.7.6 0 .5-.3.7-.7.7h-.2v.4h.2c.5 0 .8.2.8.7 0 .5-.3.8-.8.8a1 1 0 01-.8-.4l-.3.3c.3.3.7.5 1.1.5.7 0 1.2-.5 1.2-1.2 0-.6-.4-.9-.8-1 .4 0 .7-.4.7-.8 0-.6-.4-1-1-1zm3.1 0c-.5 0-.8.2-1 .6l.2.2c.3-.3.5-.4.8-.4.4 0 .6.3.6.7 0 .6-.2 1-1.6 2.5v.3h2.1v-.4h-1.6c1.2-1.1 1.6-1.7 1.6-2.4 0-.6-.4-1.1-1-1.1zm4.4 3.6h-.7V34h-.4l-1 .7.1.3.8-.5v3H42v.3h2v-.3z"/>
    </g>
</svg>