<svg xmlns="http://www.w3.org/2000/svg" fill="none" viewBox="0 0 53 62"><path fill="#999" d="M47 7.4l-1.8 49c-.1 1.4-1.3 2.6-2.7 2.6h-32a2.7 2.7 0 01-2.7-2.6L6 7.4a1.5 1.5 0 10-3 .2l1.8 49c.2 3 2.7 5.4 5.7 5.4h32c3 0 5.5-2.4 5.7-5.4l1.8-49a1.5 1.5 0 10-3-.2z"/><path fill="#999" d="M25.5 18.5v34a1.5 1.5 0 003 0v-34a1.5 1.5 0 00-3 0zm-11.5 0l1 34a1.5 1.5 0 103 0l-1-34a1.5 1.5 0 00-3 0zm22 0l-1 34a1.5 1.5 0 103 0l1-34a1.5 1.5 0 00-3 0zM1.5 8.5h50a1.5 1.5 0 000-3h-50a1.5 1.5 0 100 3z"/><path fill="#999" d="M17.9 7l1-2.6C19.3 3.7 20.3 3 21 3h11c.8 0 1.8.7 2 1.4L35.1 7 38 5.9l-1-2.6A5.5 5.5 0 0032 0H21c-2 0-4 1.4-4.8 3.3l-1 2.6 2.7 1.2z"/></svg>