<svg xmlns="http://www.w3.org/2000/svg" viewBox="0 0 16 16"><g fill="#999"><path d="M14.8 10a.4.4 0 00-.4.4V14c0 .6-.6 1.2-1.2 1.2H2c-.7 0-1.2-.6-1.2-1.2V3.6c0-.7.5-1.2 1.2-1.2h3.5a.4.4 0 000-.8H2a2 2 0 00-2 2V14a2 2 0 002 2h11.2a2 2 0 002-2v-3.6a.4.4 0 00-.4-.4z"/><path d="M15 .5a1.8 1.8 0 00-2.5 0L5.4 7.7a.4.4 0 00-.1.1l-1 3.4a.4.4 0 00.5.5l3.4-1a.4.4 0 00.2 0l7-7.2a1.8 1.8 0 000-2.5L15 .5zM6.2 8l5.9-5.8L13.9 4 8.1 9.8 6.2 7.9zm-.3.8l1.5 1.5-2.1.6.6-2.1zm9-5.7l-.4.4-1.9-1.9.4-.4a1 1 0 011.4 0l.5.5c.4.4.4 1 0 1.4z"/></g></svg>